<svg width="56" height="56" viewBox="0 0 56 56" fill="none" xmlns="http://www.w3.org/2000/svg">
<circle cx="28" cy="28" r="28" fill="#2CB027"/>
<path d="M50 28C50 32.9416 48.3363 37.7393 45.277 41.6201C42.2177 45.5008 37.9409 48.2385 33.1358 49.3921C28.3307 50.5457 23.2772 50.048 18.7895 47.9791C14.3018 45.9103 10.6413 42.3908 8.39788 37.9878C6.15444 33.5848 5.45869 28.5547 6.42275 23.708C7.38681 18.8614 9.95453 14.4804 13.7122 11.2711C17.4698 8.06176 22.1985 6.21098 27.1363 6.01697C32.0741 5.82296 36.9334 7.29702 40.9313 10.2016" stroke="white" stroke-linecap="round" stroke-linejoin="round"/>
<path d="M30.5293 38H27.2207V22.0176L22.3398 23.6855V20.8828L30.1055 18.0254H30.5293V38Z" fill="white"/>
</svg>
