<svg width="56" height="56" viewBox="0 0 56 56" fill="none" xmlns="http://www.w3.org/2000/svg">
<circle cx="28" cy="28" r="28" fill="#2CB027"/>
<path d="M49.7701 27.8851C49.7701 32.8009 48.1151 37.5735 45.0718 41.434C42.0285 45.2944 37.774 48.0179 32.9941 49.1654C28.2141 50.313 23.1869 49.8179 18.7227 47.7598C14.2584 45.7018 10.6171 42.2007 8.38536 37.8207C6.15363 33.4407 5.46152 28.4368 6.42054 23.6155C7.37957 18.7942 9.93387 14.4361 13.6719 11.2435C17.4099 8.05098 22.1139 6.20988 27.0259 6.01688C31.9379 5.82389 36.7718 7.29025 40.7488 10.1797" stroke="white" stroke-linecap="round" stroke-linejoin="round"/>
<path d="M34.918 38H21.5332V35.7168L28.1641 28.4844C29.1211 27.418 29.8001 26.5293 30.2012 25.8184C30.6113 25.0983 30.8164 24.3783 30.8164 23.6582C30.8164 22.7103 30.5475 21.9447 30.0098 21.3613C29.4811 20.778 28.7656 20.4863 27.8633 20.4863C26.7878 20.4863 25.9538 20.8145 25.3613 21.4707C24.7689 22.127 24.4727 23.0247 24.4727 24.1641H21.1504C21.1504 22.9518 21.4238 21.8626 21.9707 20.8965C22.5267 19.9212 23.3151 19.1647 24.3359 18.627C25.3659 18.0892 26.5508 17.8203 27.8906 17.8203C29.8229 17.8203 31.3451 18.3079 32.457 19.2832C33.5781 20.2493 34.1387 21.5892 34.1387 23.3027C34.1387 24.2962 33.8561 25.3398 33.291 26.4336C32.735 27.5182 31.819 28.7533 30.543 30.1387L25.6758 35.3477H34.918V38Z" fill="white"/>
</svg>
