<svg width="56" height="56" viewBox="0 0 56 56" fill="none" xmlns="http://www.w3.org/2000/svg">
<circle cx="28" cy="28" r="28" fill="#2CB027"/>
<path d="M49.7701 27.8851C49.7701 32.8009 48.1151 37.5735 45.0718 41.434C42.0285 45.2944 37.774 48.0179 32.9941 49.1654C28.2141 50.313 23.1869 49.8179 18.7227 47.7598C14.2584 45.7018 10.6171 42.2007 8.38536 37.8207C6.15363 33.4407 5.46152 28.4368 6.42054 23.6155C7.37957 18.7942 9.93387 14.4361 13.6719 11.2435C17.4099 8.05098 22.1139 6.20988 27.0259 6.01688C31.9379 5.82389 36.7718 7.29025 40.7488 10.1797" stroke="white" stroke-linecap="round" stroke-linejoin="round"/>
<path d="M32.7715 30.9043H35.2461V33.5703H32.7715V38H29.4492V33.5703H20.8496L20.7539 31.5469L29.3398 18.0938H32.7715V30.9043ZM24.2402 30.9043H29.4492V22.5918L29.2031 23.0293L24.2402 30.9043Z" fill="white"/>
</svg>
