<svg width="56" height="56" viewBox="0 0 56 56" fill="none" xmlns="http://www.w3.org/2000/svg">
<circle cx="28" cy="28" r="28" fill="#2CB027"/>
<path d="M49.7701 27.8851C49.7701 32.8009 48.1151 37.5735 45.0718 41.434C42.0285 45.2944 37.774 48.0179 32.9941 49.1654C28.2141 50.313 23.1869 49.8179 18.7227 47.7598C14.2584 45.7018 10.6171 42.2007 8.38536 37.8207C6.15363 33.4407 5.46152 28.4368 6.42054 23.6155C7.37957 18.7942 9.93387 14.4361 13.6719 11.2435C17.4099 8.05098 22.1139 6.20988 27.0259 6.01688C31.9379 5.82389 36.7718 7.29025 40.7488 10.1797" stroke="white" stroke-linecap="round" stroke-linejoin="round"/>
<path d="M25.375 26.5293H27.3984C28.4193 26.5202 29.2259 26.2559 29.8184 25.7363C30.4199 25.2168 30.7207 24.4648 30.7207 23.4805C30.7207 22.5326 30.4701 21.7988 29.9688 21.2793C29.4766 20.7507 28.7201 20.4863 27.6992 20.4863C26.806 20.4863 26.0723 20.7461 25.498 21.2656C24.9238 21.776 24.6367 22.446 24.6367 23.2754H21.3145C21.3145 22.2546 21.5833 21.3249 22.1211 20.4863C22.668 19.6478 23.4245 18.9961 24.3906 18.5312C25.3659 18.0573 26.4551 17.8203 27.6582 17.8203C29.6452 17.8203 31.2038 18.3216 32.334 19.3242C33.4733 20.3177 34.043 21.7031 34.043 23.4805C34.043 24.3737 33.7559 25.2168 33.1816 26.0098C32.6165 26.7936 31.8828 27.3861 30.9805 27.7871C32.0742 28.1608 32.9036 28.7487 33.4688 29.5508C34.043 30.3529 34.3301 31.3099 34.3301 32.4219C34.3301 34.2083 33.7148 35.6302 32.4844 36.6875C31.263 37.7448 29.6543 38.2734 27.6582 38.2734C25.7441 38.2734 24.1764 37.763 22.9551 36.7422C21.7337 35.7214 21.123 34.3633 21.123 32.668H24.4453C24.4453 33.543 24.737 34.2539 25.3203 34.8008C25.9128 35.3477 26.7057 35.6211 27.6992 35.6211C28.7292 35.6211 29.5404 35.3477 30.1328 34.8008C30.7253 34.2539 31.0215 33.4609 31.0215 32.4219C31.0215 31.3737 30.7116 30.5671 30.0918 30.002C29.472 29.4368 28.5514 29.1543 27.3301 29.1543H25.375V26.5293Z" fill="white"/>
</svg>
