<svg width="57" height="56" viewBox="0 0 57 56" fill="none" xmlns="http://www.w3.org/2000/svg">
<circle cx="28.5" cy="28" r="28" fill="#2CB027"/>
<path d="M51.2701 27.8851C51.2701 32.8009 49.6151 37.5735 46.5718 41.434C43.5285 45.2944 39.274 48.0179 34.4941 49.1654C29.7141 50.313 24.6869 49.8179 20.2227 47.7598C15.7584 45.7018 12.1171 42.2007 9.88536 37.8207C7.65363 33.4407 6.96152 28.4368 7.92054 23.6155C8.87957 18.7942 11.4339 14.4361 15.1719 11.2435C18.9099 8.05098 23.6139 6.20988 28.5259 6.01688C33.4379 5.82389 38.2718 7.29025 42.2488 10.1797" stroke="white" stroke-linecap="round" stroke-linejoin="round"/>
<path d="M22.9219 28.1289L24.002 18.0938H34.6934V20.9648H26.7637L26.2168 25.7227C27.1374 25.194 28.1764 24.9297 29.334 24.9297C31.2298 24.9297 32.7018 25.5358 33.75 26.748C34.8073 27.9603 35.3359 29.5918 35.3359 31.6426C35.3359 33.666 34.7526 35.2793 33.5859 36.4824C32.4193 37.6764 30.8197 38.2734 28.7871 38.2734C26.9642 38.2734 25.4512 37.7585 24.248 36.7285C23.054 35.6895 22.4069 34.3223 22.3066 32.627H25.5195C25.6471 33.5931 25.9935 34.3359 26.5586 34.8555C27.1237 35.3659 27.862 35.6211 28.7734 35.6211C29.7943 35.6211 30.5872 35.2565 31.1523 34.5273C31.7266 33.7982 32.0137 32.8047 32.0137 31.5469C32.0137 30.3346 31.6992 29.3776 31.0703 28.6758C30.4414 27.9648 29.5755 27.6094 28.4727 27.6094C27.8711 27.6094 27.3607 27.6914 26.9414 27.8555C26.5221 28.0104 26.0664 28.3203 25.5742 28.7852L22.9219 28.1289Z" fill="white"/>
</svg>
