<svg width="57" height="56" viewBox="0 0 57 56" fill="none" xmlns="http://www.w3.org/2000/svg">
<circle cx="28.5" cy="28" r="28" fill="#2CB027"/>
<path d="M51.2701 27.8851C51.2701 32.8009 49.6151 37.5735 46.5718 41.434C43.5285 45.2944 39.274 48.0179 34.4941 49.1654C29.7141 50.313 24.6869 49.8179 20.2227 47.7598C15.7584 45.7018 12.1171 42.2007 9.88536 37.8207C7.65363 33.4407 6.96152 28.4368 7.92054 23.6155C8.87957 18.7942 11.4339 14.4361 15.1719 11.2435C18.9099 8.05098 23.6139 6.20988 28.5259 6.01688C33.4379 5.82389 38.2718 7.29025 42.2488 10.1797" stroke="white" stroke-linecap="round" stroke-linejoin="round"/>
<path d="M32.3691 17.998V20.7461H31.959C30.0996 20.7734 28.6139 21.2839 27.502 22.2773C26.39 23.2708 25.7292 24.679 25.5195 26.502C26.5859 25.3809 27.9486 24.8203 29.6074 24.8203C31.3665 24.8203 32.752 25.4401 33.7637 26.6797C34.7845 27.9193 35.2949 29.5189 35.2949 31.4785C35.2949 33.502 34.6979 35.1426 33.5039 36.4004C32.319 37.6491 30.7604 38.2734 28.8281 38.2734C26.8411 38.2734 25.2279 37.5397 23.9883 36.0723C22.7578 34.6048 22.1426 32.6816 22.1426 30.3027V29.168C22.1426 25.6771 22.9902 22.9427 24.6855 20.9648C26.39 18.987 28.8372 17.998 32.0273 17.998H32.3691ZM28.8008 27.5C28.0716 27.5 27.4017 27.7051 26.791 28.1152C26.1895 28.5254 25.7474 29.0723 25.4648 29.7559V30.7676C25.4648 32.2441 25.7747 33.4199 26.3945 34.2949C27.0143 35.1608 27.8164 35.5938 28.8008 35.5938C29.7852 35.5938 30.5645 35.2246 31.1387 34.4863C31.7129 33.748 32 32.7773 32 31.5742C32 30.3711 31.7083 29.3913 31.125 28.6348C30.5417 27.8783 29.7669 27.5 28.8008 27.5Z" fill="white"/>
</svg>
